REM DIRINDEX 1\2,1\3,1\4,1\5,1\6
REM DIRNAME folder01,folder02,folder03,folder04,folder05,folder06
TITLE ""
FILE "DISC4Track15.mp3" MP3
  TRACK 01 AUDIO
    TITLE "0:"
    INDEX 01 00:00:00
  TRACK 02 AUDIO
    TITLE "2:cjc129_3300"
    INDEX 01 00:00:05
  TRACK 03 AUDIO
    TITLE "0:"
    INDEX 01 00:02:49
  TRACK 04 AUDIO
    TITLE "3:cjc129_3301"
    INDEX 01 00:03:63
  TRACK 05 AUDIO
    TITLE "0:"
    INDEX 01 00:08:19
  TRACK 06 AUDIO
    TITLE "5:cjc129_3302"
    INDEX 01 00:08:48
  TRACK 07 AUDIO
    TITLE "0:"
    INDEX 01 00:15:58
  TRACK 08 AUDIO
    TITLE "4:cjc129_3303"
    INDEX 01 00:16:53
  TRACK 09 AUDIO
    TITLE "0:"
    INDEX 01 00:21:09
  TRACK 10 AUDIO
    TITLE "6:cjc129_3304"
    INDEX 01 00:21:41
  TRACK 11 AUDIO
    TITLE "0:"
    INDEX 01 00:25:50
  TRACK 12 AUDIO
    TITLE "3:cjc129_3305"
    INDEX 01 00:27:26
  TRACK 13 AUDIO
    TITLE "0:"
    INDEX 01 00:31:47
  TRACK 14 AUDIO
    TITLE "5:cjc129_3306"
    INDEX 01 00:32:01
  TRACK 15 AUDIO
    TITLE "0:"
    INDEX 01 00:37:22
  TRACK 16 AUDIO
    TITLE "4:cjc129_3307"
    INDEX 01 00:38:12
  TRACK 17 AUDIO
    TITLE "0:"
    INDEX 01 00:42:35
  TRACK 18 AUDIO
    TITLE "6:cjc129_3308"
    INDEX 01 00:42:63
  TRACK 19 AUDIO
    TITLE "0:"
    INDEX 01 00:47:25
  TRACK 20 AUDIO
    TITLE "3:cjc129_3309"
    INDEX 01 00:48:73
  TRACK 21 AUDIO
    TITLE "0:"
    INDEX 01 00:51:11
  TRACK 22 AUDIO
    TITLE "5:cjc129_3310"
    INDEX 01 00:51:42
  TRACK 23 AUDIO
    TITLE "0:"
    INDEX 01 00:53:49
  TRACK 24 AUDIO
    TITLE "4:cjc129_3311"
    INDEX 01 00:54:40
  TRACK 25 AUDIO
    TITLE "0:"
    INDEX 01 00:56:53
  TRACK 26 AUDIO
    TITLE "6:cjc129_3312"
    INDEX 01 00:57:07
  TRACK 27 AUDIO
    TITLE "0:"
    INDEX 01 01:02:61
  TRACK 28 AUDIO
    TITLE "3:cjc129_3313"
    INDEX 01 01:04:39
  TRACK 29 AUDIO
    TITLE "0:"
    INDEX 01 01:05:64
  TRACK 30 AUDIO
    TITLE "5:cjc129_3314"
    INDEX 01 01:06:20
  TRACK 31 AUDIO
    TITLE "0:"
    INDEX 01 01:09:61
  TRACK 32 AUDIO
    TITLE "4:cjc129_3315"
    INDEX 01 01:10:53
  TRACK 33 AUDIO
    TITLE "0:"
    INDEX 01 01:12:01
  TRACK 34 AUDIO
    TITLE "6:cjc129_3316"
    INDEX 01 01:12:34
  TRACK 35 AUDIO
    TITLE "0:"
    INDEX 01 01:17:04
  TRACK 36 AUDIO
    TITLE "3:cjc129_3317"
    INDEX 01 01:18:54
  TRACK 37 AUDIO
    TITLE "0:"
    INDEX 01 01:21:74
  TRACK 38 AUDIO
    TITLE "5:cjc129_3318"
    INDEX 01 01:22:31
  TRACK 39 AUDIO
    TITLE "0:"
    INDEX 01 01:26:25
  TRACK 40 AUDIO
    TITLE "4:cjc129_3319"
    INDEX 01 01:27:14
  TRACK 41 AUDIO
    TITLE "0:"
    INDEX 01 01:30:34
  TRACK 42 AUDIO
    TITLE "6:cjc129_3320"
    INDEX 01 01:30:66
  TRACK 43 AUDIO
    TITLE "0:"
    INDEX 01 01:36:70
  TRACK 44 AUDIO
    TITLE "3:cjc129_3321"
    INDEX 01 01:38:47
  TRACK 45 AUDIO
    TITLE "0:"
    INDEX 01 01:40:11
  TRACK 46 AUDIO
    TITLE "5:cjc129_3322"
    INDEX 01 01:40:42
  TRACK 47 AUDIO
    TITLE "0:"
    INDEX 01 01:44:70
  TRACK 48 AUDIO
    TITLE "4:cjc129_3323"
    INDEX 01 01:45:59
  TRACK 49 AUDIO
    TITLE "0:"
    INDEX 01 01:47:23
  TRACK 50 AUDIO
    TITLE "6:cjc129_3324"
    INDEX 01 01:47:54
  TRACK 51 AUDIO
    TITLE "0:"
    INDEX 01 01:51:44
  TRACK 52 AUDIO
    TITLE "3:cjc129_3325"
    INDEX 01 01:53:20
  TRACK 53 AUDIO
    TITLE "0:"
    INDEX 01 01:54:29
  TRACK 54 AUDIO
    TITLE "5:cjc129_3326"
    INDEX 01 01:54:60
  TRACK 55 AUDIO
    TITLE "0:"
    INDEX 01 01:57:02
  TRACK 56 AUDIO
    TITLE "4:cjc129_3327"
    INDEX 01 01:57:64
  TRACK 57 AUDIO
    TITLE "0:"
    INDEX 01 01:59:01
  TRACK 58 AUDIO
    TITLE "6:cjc129_3328"
    INDEX 01 01:59:30
  TRACK 59 AUDIO
    TITLE "0:"
    INDEX 01 02:04:04
  TRACK 60 AUDIO
    TITLE "3:cjc129_3329"
    INDEX 01 02:05:54
  TRACK 61 AUDIO
    TITLE "0:"
    INDEX 01 02:07:35
  TRACK 62 AUDIO
    TITLE "5:cjc129_3330"
    INDEX 01 02:07:69
  TRACK 63 AUDIO
    TITLE "0:"
    INDEX 01 02:13:73
  TRACK 64 AUDIO
    TITLE "4:cjc129_3331"
    INDEX 01 02:14:63
  TRACK 65 AUDIO
    TITLE "0:"
    INDEX 01 02:16:44
  TRACK 66 AUDIO
    TITLE "6:cjc129_3332"
    INDEX 01 02:17:02
  TRACK 67 AUDIO
    TITLE "0:"
    INDEX 01 02:20:34
